HIERARCHY
ROOT mixamorig7:Hips
{
	OFFSET 0.000000 99.793892 0.000000
	CHANNELS 6 Xposition Yposition Zposition Xrotation Yrotation Zrotation
	JOINT mixamorig7:Spine
	{
		OFFSET 0.000000 9.694397 -1.109700
		CHANNELS 3 Xrotation Yrotation Zrotation
		JOINT mixamorig7:Spine1
		{
			OFFSET 0.000000 11.310143 -1.294687
			CHANNELS 3 Xrotation Yrotation Zrotation
			JOINT mixamorig7:Spine2
			{
				OFFSET 0.000000 12.925888 -1.479643
				CHANNELS 3 Xrotation Yrotation Zrotation
				JOINT mixamorig7:Neck
				{
					OFFSET 0.000000 14.541641 -1.664600
					CHANNELS 3 Xrotation Yrotation Zrotation
					JOINT mixamorig7:Head
					{
						OFFSET 0.000000 6.944305 1.982500
						CHANNELS 3 Xrotation Yrotation Zrotation
						JOINT mixamorig7:HeadTop_End
						{
							OFFSET 0.000000 22.789597 6.506100
							CHANNELS 3 Xrotation Yrotation Zrotation
							End Site
							{
								OFFSET 0.000000 23.700119 0.000000
							}
						}
					}
				}
				JOINT mixamorig7:LeftShoulder
				{
					OFFSET 6.681300 12.786087 -1.621969
					CHANNELS 3 Xrotation Yrotation Zrotation
					JOINT mixamorig7:LeftArm
					{
						OFFSET 13.585576 -3.446136 0.085203
						CHANNELS 3 Xrotation Yrotation Zrotation
						JOINT mixamorig7:LeftForeArm
						{
							OFFSET 27.330299 0.000000 -0.000001
							CHANNELS 3 Xrotation Yrotation Zrotation
							JOINT mixamorig7:LeftHand
							{
								OFFSET 20.888802 0.000000 -0.000001
								CHANNELS 3 Xrotation Yrotation Zrotation
								JOINT mixamorig7:LeftHandThumb1
								{
									OFFSET 3.934731 -1.328445 2.632622
									CHANNELS 3 Xrotation Yrotation Zrotation
									JOINT mixamorig7:LeftHandThumb2
									{
										OFFSET 3.046997 -1.759186 1.759186
										CHANNELS 3 Xrotation Yrotation Zrotation
										JOINT mixamorig7:LeftHandThumb3
										{
											OFFSET 2.671288 -1.542267 1.542270
											CHANNELS 3 Xrotation Yrotation Zrotation
											JOINT mixamorig7:LeftHandThumb4
											{
												OFFSET 2.059540 -1.189072 1.189075
												CHANNELS 3 Xrotation Yrotation Zrotation
												End Site
												{
													OFFSET 1.871078 -1.157242 1.493111
												}
											}
										}
									}
								}
								JOINT mixamorig7:LeftHandIndex1
								{
									OFFSET 11.356102 -0.357925 2.480554
									CHANNELS 3 Xrotation Yrotation Zrotation
									JOINT mixamorig7:LeftHandIndex2
									{
										OFFSET 3.230431 0.000000 -0.000000
										CHANNELS 3 Xrotation Yrotation Zrotation
										JOINT mixamorig7:LeftHandIndex3
										{
											OFFSET 3.093842 0.000000 -0.000000
											CHANNELS 3 Xrotation Yrotation Zrotation
											JOINT mixamorig7:LeftHandIndex4
											{
												OFFSET 2.710304 0.000000 -0.000000
												CHANNELS 3 Xrotation Yrotation Zrotation
												End Site
												{
													OFFSET 2.710297 0.000031 0.002100
												}
											}
										}
									}
								}
								JOINT mixamorig7:LeftHandMiddle1
								{
									OFFSET 11.227951 0.000000 -0.000001
									CHANNELS 3 Xrotation Yrotation Zrotation
									JOINT mixamorig7:LeftHandMiddle2
									{
										OFFSET 3.465431 0.000000 0.000000
										CHANNELS 3 Xrotation Yrotation Zrotation
										JOINT mixamorig7:LeftHandMiddle3
										{
											OFFSET 3.340118 0.000000 0.000000
											CHANNELS 3 Xrotation Yrotation Zrotation
											JOINT mixamorig7:LeftHandMiddle4
											{
												OFFSET 2.993599 0.000000 0.000000
												CHANNELS 3 Xrotation Yrotation Zrotation
												End Site
												{
													OFFSET 2.993607 -0.000061 -0.003500
												}
											}
										}
									}
								}
								JOINT mixamorig7:LeftHandRing1
								{
									OFFSET 11.215385 -0.016006 -2.298895
									CHANNELS 3 Xrotation Yrotation Zrotation
									JOINT mixamorig7:LeftHandRing2
									{
										OFFSET 2.891907 0.000000 0.000000
										CHANNELS 3 Xrotation Yrotation Zrotation
										JOINT mixamorig7:LeftHandRing3
										{
											OFFSET 2.705215 0.000000 0.000000
											CHANNELS 3 Xrotation Yrotation Zrotation
											JOINT mixamorig7:LeftHandRing4
											{
												OFFSET 2.307037 0.000000 0.000000
												CHANNELS 3 Xrotation Yrotation Zrotation
												End Site
												{
													OFFSET 2.307007 0.000351 0.012295
												}
											}
										}
									}
								}
								JOINT mixamorig7:LeftHandPinky1
								{
									OFFSET 9.863464 -0.351425 -4.395246
									CHANNELS 3 Xrotation Yrotation Zrotation
									JOINT mixamorig7:LeftHandPinky2
									{
										OFFSET 2.647736 0.000000 0.000000
										CHANNELS 3 Xrotation Yrotation Zrotation
										JOINT mixamorig7:LeftHandPinky3
										{
											OFFSET 2.219719 0.000000 0.000000
											CHANNELS 3 Xrotation Yrotation Zrotation
											JOINT mixamorig7:LeftHandPinky4
											{
												OFFSET 1.855507 0.000000 0.000000
												CHANNELS 3 Xrotation Yrotation Zrotation
												End Site
												{
													OFFSET 1.855507 -0.000122 -0.005599
												}
											}
										}
									}
								}
							}
						}
					}
				}
				JOINT mixamorig7:RightShoulder
				{
					OFFSET -6.681300 12.786102 -1.707222
					CHANNELS 3 Xrotation Yrotation Zrotation
					JOINT mixamorig7:RightArm
					{
						OFFSET -13.585576 -3.446152 -0.085196
						CHANNELS 3 Xrotation Yrotation Zrotation
						JOINT mixamorig7:RightForeArm
						{
							OFFSET -27.318214 0.000000 0.000002
							CHANNELS 3 Xrotation Yrotation Zrotation
							JOINT mixamorig7:RightHand
							{
								OFFSET -20.889801 0.000000 0.000001
								CHANNELS 3 Xrotation Yrotation Zrotation
								JOINT mixamorig7:RightHandThumb1
								{
									OFFSET -4.042946 -1.401764 2.740883
									CHANNELS 3 Xrotation Yrotation Zrotation
									JOINT mixamorig7:RightHandThumb2
									{
										OFFSET -3.149010 -1.818085 1.818083
										CHANNELS 3 Xrotation Yrotation Zrotation
										JOINT mixamorig7:RightHandThumb3
										{
											OFFSET -2.605377 -1.504211 1.504218
											CHANNELS 3 Xrotation Yrotation Zrotation
											JOINT mixamorig7:RightHandThumb4
											{
												OFFSET -2.034538 -1.174637 1.174643
												CHANNELS 3 Xrotation Yrotation Zrotation
												End Site
												{
													OFFSET -1.808716 -1.141098 1.524937
												}
											}
										}
									}
								}
								JOINT mixamorig7:RightHandIndex1
								{
									OFFSET -11.498108 -0.223465 2.596514
									CHANNELS 3 Xrotation Yrotation Zrotation
									JOINT mixamorig7:RightHandIndex2
									{
										OFFSET -3.230072 0.000000 0.000000
										CHANNELS 3 Xrotation Yrotation Zrotation
										JOINT mixamorig7:RightHandIndex3
										{
											OFFSET -3.008400 0.000000 0.000000
											CHANNELS 3 Xrotation Yrotation Zrotation
											JOINT mixamorig7:RightHandIndex4
											{
												OFFSET -2.577469 0.000000 0.000000
												CHANNELS 3 Xrotation Yrotation Zrotation
												End Site
												{
													OFFSET -2.577400 -0.000381 -0.019196
												}
											}
										}
									}
								}
								JOINT mixamorig7:RightHandMiddle1
								{
									OFFSET -11.291573 0.000000 0.000000
									CHANNELS 3 Xrotation Yrotation Zrotation
									JOINT mixamorig7:RightHandMiddle2
									{
										OFFSET -3.513855 0.000000 0.000000
										CHANNELS 3 Xrotation Yrotation Zrotation
										JOINT mixamorig7:RightHandMiddle3
										{
											OFFSET -3.299538 0.000000 0.000000
											CHANNELS 3 Xrotation Yrotation Zrotation
											JOINT mixamorig7:RightHandMiddle4
											{
												OFFSET -2.888702 0.000000 0.000000
												CHANNELS 3 Xrotation Yrotation Zrotation
												End Site
												{
													OFFSET -2.888702 -0.000076 -0.003599
												}
											}
										}
									}
								}
								JOINT mixamorig7:RightHandRing1
								{
									OFFSET -11.158524 -0.069885 -2.264038
									CHANNELS 3 Xrotation Yrotation Zrotation
									JOINT mixamorig7:RightHandRing2
									{
										OFFSET -2.878105 0.000000 0.000000
										CHANNELS 3 Xrotation Yrotation Zrotation
										JOINT mixamorig7:RightHandRing3
										{
											OFFSET -2.739204 0.000000 0.000000
											CHANNELS 3 Xrotation Yrotation Zrotation
											JOINT mixamorig7:RightHandRing4
											{
												OFFSET -2.335304 0.000000 0.000000
												CHANNELS 3 Xrotation Yrotation Zrotation
												End Site
												{
													OFFSET -2.335297 0.000061 0.001999
												}
											}
										}
									}
								}
								JOINT mixamorig7:RightHandPinky1
								{
									OFFSET -9.865288 -0.197952 -4.417972
									CHANNELS 3 Xrotation Yrotation Zrotation
									JOINT mixamorig7:RightHandPinky2
									{
										OFFSET -2.659409 0.000000 0.000000
										CHANNELS 3 Xrotation Yrotation Zrotation
										JOINT mixamorig7:RightHandPinky3
										{
											OFFSET -2.181625 0.000000 0.000000
											CHANNELS 3 Xrotation Yrotation Zrotation
											JOINT mixamorig7:RightHandPinky4
											{
												OFFSET -1.923111 0.000000 0.000000
												CHANNELS 3 Xrotation Yrotation Zrotation
												End Site
												{
													OFFSET -1.923103 0.000153 0.005198
												}
											}
										}
									}
								}
							}
						}
					}
				}
			}
		}
	}
	JOINT mixamorig7:LeftUpLeg
	{
		OFFSET 8.726300 -5.393196 -0.445400
		CHANNELS 3 Xrotation Yrotation Zrotation
		JOINT mixamorig7:LeftLeg
		{
			OFFSET 0.203112 -40.995728 -2.240422
			CHANNELS 3 Xrotation Yrotation Zrotation
			JOINT mixamorig7:LeftFoot
			{
				OFFSET -0.203116 -41.811745 -4.341125
				CHANNELS 3 Xrotation Yrotation Zrotation
				JOINT mixamorig7:LeftToeBase
				{
					OFFSET 2.022961 -9.567262 15.917597
					CHANNELS 3 Xrotation Yrotation Zrotation
					JOINT mixamorig7:LeftToe_End
					{
						OFFSET 0.919500 0.587269 6.993709
						CHANNELS 3 Xrotation Yrotation Zrotation
						End Site
						{
							OFFSET 0.919500 0.587269 6.993710
						}
					}
				}
			}
		}
	}
	JOINT mixamorig7:RightUpLeg
	{
		OFFSET -8.726300 -5.393196 -0.458900
		CHANNELS 3 Xrotation Yrotation Zrotation
		JOINT mixamorig7:RightLeg
		{
			OFFSET -0.203119 -40.995686 -2.183443
			CHANNELS 3 Xrotation Yrotation Zrotation
			JOINT mixamorig7:RightFoot
			{
				OFFSET 0.203109 -41.812000 -3.686646
				CHANNELS 3 Xrotation Yrotation Zrotation
				JOINT mixamorig7:RightToeBase
				{
					OFFSET -2.022940 -9.566534 15.362668
					CHANNELS 3 Xrotation Yrotation Zrotation
					JOINT mixamorig7:RightToe_End
					{
						OFFSET -0.919481 0.587567 7.048032
						CHANNELS 3 Xrotation Yrotation Zrotation
						End Site
						{
							OFFSET -0.919481 0.587567 7.048031
						}
					}
				}
			}
		}
	}
}
MOTION
Frames: 4
Frame Time: 0.016667
0.313162 96.545967 0.223507 -2.438003 0.075653 -4.186594 1.720545 0.061907 1.069106 3.443624 0.243801 0.717516 3.443622 0.243801 0.717516 -0.281911 -0.511905 1.241985 -0.281910 -0.511905 1.241986 0.000001 0.000000 0.000000 0.577971 -9.651123 -9.869710 -1.791121 -9.553039 -71.206047 32.363550 -4.837726 3.604582 -5.478187 -6.421308 -2.966714 44.596200 5.219616 31.157991 2.426650 20.932112 10.996110 -4.919782 -10.077568 -2.388534 0.000002 0.000002 0.000004 0.152002 4.943535 -1.638194 2.820281 1.655572 -38.330912 4.413805 -2.297985 -5.968670 0.000001 -0.000001 -0.000002 0.398755 6.167431 -16.901291 5.414348 0.826611 -39.294778 5.759537 -0.110567 -7.097918 0.000002 0.000002 0.000001 0.946368 8.272317 -29.052203 6.596246 1.106009 -36.045347 5.813665 -0.147294 -11.497877 0.000000 0.000001 -0.000001 0.962346 7.927130 -30.796042 9.105835 2.503047 -35.791397 9.816670 4.559750 -7.505639 0.000000 -0.000003 -0.000002 0.626902 3.035709 20.156023 -6.823698 19.799508 54.201185 23.947676 7.000465 -3.476558 -5.574904 10.270133 -4.776462 4.280783 -15.890138 -2.422273 1.836893 -18.253817 -10.474653 -2.576134 5.196129 1.002204 -0.000003 0.000004 -0.000002 0.815701 -7.341121 29.157777 1.921643 0.060856 16.932199 4.528732 2.821030 11.169174 -0.000002 -0.000001 -0.000000 1.407144 -8.005374 40.252238 4.496521 0.856182 17.906996 6.072471 4.827173 12.436054 0.000001 -0.000002 -0.000000 2.288426 -9.822533 52.036018 5.775681 0.626575 14.653882 6.114425 6.591883 12.764629 -0.000004 -0.000002 -0.000002 0.338215 -8.339705 60.178037 8.289375 -0.760716 14.380690 10.669905 0.128432 12.856366 -0.000001 0.000001 0.000000 -28.689270 3.963362 4.718608 60.720136 10.625814 0.780823 -1.513117 -0.354182 6.551471 -8.604677 0.976892 -8.054451 -0.000000 -0.000001 0.000001 -12.615934 -4.212488 6.937775 26.716946 -9.984073 -0.097479 -11.835656 -0.043680 -1.499801 -0.146952 -0.005750 0.000005 -0.000001 -0.000005 0.000000 
0.250950 96.666916 1.574499 -2.178142 0.051154 -3.554265 1.699038 0.227358 0.941020 3.403159 0.523752 0.594076 3.403161 0.523752 0.594076 -0.295361 -0.525900 1.101830 -0.295360 -0.525900 1.101830 0.000000 0.000000 0.000000 0.557228 -9.093709 -10.271122 -0.221197 -7.965281 -71.419702 31.565712 -5.023726 3.608054 -5.484142 -6.351267 -3.004658 44.596197 5.219616 31.157998 2.426650 20.932107 10.996107 -4.919779 -10.077573 -2.388537 0.000001 0.000004 0.000006 0.151997 4.943536 -1.638194 2.820281 1.655572 -38.330912 4.413806 -2.297979 -5.968668 -0.000003 0.000000 -0.000001 0.398758 6.167430 -16.901288 5.414336 0.826609 -39.294782 5.759538 -0.110561 -7.097916 -0.000001 -0.000003 -0.000002 0.946359 8.272318 -29.052203 6.596245 1.106009 -36.045340 5.813665 -0.147299 -11.497880 -0.000000 -0.000002 -0.000002 0.962345 7.927129 -30.796039 9.105832 2.503050 -35.791400 9.816671 4.559756 -7.505639 0.000000 0.000001 -0.000001 0.575236 3.572599 19.597078 -8.064964 20.798571 53.685546 22.872681 7.728193 -3.605261 -5.557706 9.967071 -4.486287 4.280786 -15.890141 -2.422269 1.836893 -18.253824 -10.474656 -2.576136 5.196132 1.002199 -0.000001 0.000001 -0.000007 0.815692 -7.341126 29.157777 1.921650 0.060857 16.932201 4.528735 2.821027 11.169171 0.000005 -0.000000 -0.000001 1.407146 -8.005372 40.252238 4.496519 0.856182 17.906996 6.072478 4.827172 12.436063 -0.000001 -0.000000 -0.000001 2.288417 -9.822538 52.036015 5.775681 0.626578 14.653886 6.114423 6.591887 12.764626 0.000002 -0.000004 0.000000 0.338217 -8.339710 60.178051 8.289378 -0.760717 14.380695 10.669902 0.128433 12.856365 -0.000000 0.000002 -0.000003 -29.355702 4.133201 3.473713 56.735315 11.563325 0.828419 -1.954584 -0.334814 6.073383 -7.993792 0.994505 -8.067118 0.000000 -0.000001 0.000001 -11.708365 -4.294154 6.262905 26.262871 -9.633141 -0.083023 -12.553305 -0.016314 -1.414471 -0.142420 -0.004115 0.011142 -0.000001 -0.000003 -0.000000 
0.183813 96.793503 2.909073 -1.917630 0.027106 -2.957995 1.682229 0.391696 0.816527 3.371539 0.807128 0.488146 3.371537 0.807128 0.488146 -0.314562 -0.543808 0.966426 -0.314544 -0.543807 0.966427 0.000001 -0.000000 0.000000 0.542520 -8.579692 -10.646901 1.361776 -6.588653 -71.575943 30.654418 -5.386720 3.694021 -5.496241 -6.353712 -2.996716 44.596194 5.219616 31.157998 2.426649 20.932109 10.996112 -4.919779 -10.077565 -2.388537 0.000000 0.000005 0.000004 0.152002 4.943536 -1.638194 2.820278 1.655572 -38.330912 4.413798 -2.297989 -5.968665 -0.000002 0.000002 0.000001 0.398752 6.167431 -16.901288 5.414343 0.826609 -39.294785 5.759539 -0.110560 -7.097918 0.000002 0.000001 -0.000001 0.946368 8.272317 -29.052199 6.596246 1.106006 -36.045343 5.813660 -0.147300 -11.497882 -0.000001 0.000002 0.000000 0.962345 7.927128 -30.796039 9.105837 2.503050 -35.791393 9.816671 4.559751 -7.505641 -0.000001 0.000003 0.000001 0.535674 4.052409 19.104521 -9.190291 21.819821 53.073449 21.752332 8.542171 -3.729916 -5.517881 9.651337 -4.398500 4.280774 -15.890138 -2.422273 1.836887 -18.253827 -10.474651 -2.576133 5.196132 1.002201 -0.000001 0.000003 -0.000003 0.815689 -7.341127 29.157777 1.921638 0.060857 16.932201 4.528736 2.821028 11.169172 0.000001 0.000002 0.000001 1.407141 -8.005375 40.252241 4.496519 0.856182 17.906999 6.072477 4.827172 12.436060 -0.000000 0.000003 0.000003 2.288415 -9.822537 52.036015 5.775681 0.626579 14.653887 6.114421 6.591891 12.764631 0.000003 0.000000 0.000002 0.338212 -8.339707 60.178044 8.289369 -0.760712 14.380697 10.669904 0.128435 12.856363 -0.000001 -0.000003 0.000002 -29.977338 4.185674 2.271297 52.321786 12.416714 0.794881 -1.558498 -0.304053 6.035066 -7.377966 0.956524 -7.785190 0.000002 -0.000001 0.000000 -10.728082 -4.315957 5.658497 25.608929 -9.372616 -0.075878 -13.153792 0.010593 -1.332076 -0.053958 0.000152 -0.002441 -0.000000 -0.000004 0.000000 
0.114472 96.923370 4.233508 -1.652168 0.007306 -2.401076 1.666711 0.551726 0.694995 3.341801 1.090188 0.395899 3.341799 1.090187 0.395899 -0.335411 -0.565079 0.838032 -0.335422 -0.565080 0.838031 0.000000 0.000000 0.000000 0.532539 -8.102510 -10.995373 2.954795 -5.346400 -71.706379 29.712788 -5.848853 3.818296 -5.510297 -6.397880 -2.944278 44.596200 5.219615 31.157998 2.426650 20.932110 10.996110 -4.919779 -10.077573 -2.388539 0.000001 0.000000 -0.000003 0.151998 4.943537 -1.638194 2.820285 1.655572 -38.330912 4.413797 -2.297982 -5.968668 -0.000001 -0.000000 0.000001 0.398755 6.167431 -16.901288 5.414337 0.826607 -39.294782 5.759543 -0.110562 -7.097916 0.000000 -0.000001 0.000002 0.946360 8.272318 -29.052199 6.596245 1.106011 -36.045340 5.813664 -0.147298 -11.497881 -0.000000 -0.000000 0.000000 0.962348 7.927130 -30.796042 9.105837 2.503049 -35.791400 9.816668 4.559756 -7.505640 -0.000001 0.000005 -0.000003 0.504471 4.487953 18.663190 -10.228001 22.844473 52.410125 20.625549 9.402900 -3.836824 -5.464918 9.341691 -4.454361 4.280778 -15.890135 -2.422271 1.836892 -18.253824 -10.474652 -2.576136 5.196130 1.002200 0.000003 0.000007 0.000001 0.815694 -7.341120 29.157777 1.921646 0.060857 16.932201 4.528737 2.821030 11.169172 -0.000000 0.000001 0.000001 1.407142 -8.005369 40.252238 4.496522 0.856184 17.906999 6.072484 4.827168 12.436059 -0.000000 -0.000001 -0.000003 2.288415 -9.822534 52.036011 5.775686 0.626576 14.653886 6.114427 6.591886 12.764631 -0.000003 -0.000001 0.000001 0.338212 -8.339704 60.178037 8.289380 -0.760714 14.380699 10.669907 0.128434 12.856367 -0.000000 0.000003 -0.000002 -30.519266 4.163053 1.114463 47.543106 13.144653 0.757789 -0.606775 -0.283811 6.292321 -6.384927 0.785172 -6.860715 0.000000 0.000000 0.000000 -9.669933 -4.305758 5.117731 24.756847 -9.175428 -0.073831 -13.643505 0.034745 -1.254935 -0.000046 0.005141 -0.000000 -0.000001 -0.000001 -0.000000 
